# xmcd CD database file
#
# Track frame offsets:
#	150
#	13762
#	30482
#	47217
#	66802
#	81087
#	95540
#	113495
#	131837
#	147070
#
# Disc length: 2197 seconds
#
# Revision: 4
# Processed by: cddbd v1.5.1PL0 Copyright (c) Steve Scherf et al.
# Submitted via: CDex 1.50
#
DISCID=7f08930a
DTITLE=Champion Jack Dupree - Blues From The Gutter
DYEAR=1958
DGENRE=New Orleans Blues
TTITLE0=Strollin'
TTITLE1=T.B. Blues
TTITLE2=Can't Kick the Habit
TTITLE3=Evil Woman
TTITLE4=Nasty Boogie
TTITLE5=Junker's Blues
TTITLE6=Bad Blood
TTITLE7=Goin' Down Slow
TTITLE8=Frankie and Johnny
TTITLE9=Stack-O-Lee
EXTD=YEAR: 1958
EXTT0=
EXTT1=
EXTT2=
EXTT3=
EXTT4=
EXTT5=
EXTT6=
EXTT7=
EXTT8=
EXTT9=
PLAYORDER=
